PathFileType	4	(X/Y/Z)	TVC_9_BWA2_walk_RCNL2025.trc
DataRate	CameraRate	NumFrames	NumMarkers	Units	OrigDataRate	OrigDataStartFrame	OrigNumFrames
100	100	4	27	mm	100	319	364
Frame#	Time	R_Shoulder			L_Shoulder			C7			J_Notch			R_Elbow			L_Elbow			R_Wrist			L_Wrist			R_Asis			L_Asis			R_Psis			L_Psis			Sacral			Thoracic			Sternum			R_Thigh_Lateral			R_Knee_Lateral			R_Shank_Lateral			R_Ankle_Lateral			R_Heel			R_Toe			L_Thigh_Lateral			L_Knee_Lateral			L_Shank_Lateral			L_Ankle_Lateral			L_Heel			L_Toe		
		X1	Y1	Z1	X2	Y2	Z2	X3	Y3	Z3	X4	Y4	Z4	X5	Y5	Z5	X6	Y6	Z6	X7	Y7	Z7	X8	Y8	Z8	X9	Y9	Z9	X10	Y10	Z10	X11	Y11	Z11	X12	Y12	Z12	X13	Y13	Z13	X14	Y14	Z14	X15	Y15	Z15	X16	Y16	Z16	X17	Y17	Z17	X18	Y18	Z18	X19	Y19	Z19	X20	Y20	Z20	X21	Y21	Z21	X22	Y22	Z22	X23	Y23	Z23	X24	Y24	Z24	X25	Y25	Z25	X26	Y26	Z26	X27	Y27	Z27
319	3.18000000	207.156342	1379.387817	165.806656	217.124573	1366.098267	-229.020035	157.072723	1442.336792	-42.783413	305.217407	1339.732300	-20.608952	89.131187	1087.160400	287.614502	200.874466	1019.669189	-286.648529	184.343269	854.189606	269.774078	332.020691	818.376587	-297.766037	223.241272	935.855103	144.821121	222.098022	937.710632	-159.822418	29.587849	960.390259	44.068489	30.392311	962.020081	-56.351658	29.990080	961.205170	-6.141584	48.414818	1171.668457	-22.847307	354.542145	1146.270752	-9.915216	294.987488	550.903137	214.554062	305.777313	480.692688	147.546249	223.420364	357.560944	201.569077	52.314610	201.254089	143.911926	-4.351487	219.429993	87.135109	142.636993	111.101616	102.752426	241.936646	572.553162	-192.747299	225.486038	441.775635	-134.649796	203.427994	297.095642	-179.639465	149.196915	79.367020	-105.803337	92.349396	54.472919	-50.552467	284.350159	44.804031	-79.564110
320	3.19000000	215.066925	1379.970825	165.793976	225.697052	1366.461182	-229.049057	165.759735	1442.969116	-42.919884	313.636230	1340.056274	-20.579836	92.454292	1088.236572	285.028198	214.086639	1019.866882	-286.835175	180.688049	852.447571	268.028587	349.379913	821.410492	-298.589462	231.299606	936.373047	144.272964	229.535645	938.329895	-160.276779	37.444118	961.296204	44.091183	37.940865	963.089844	-56.361713	37.692492	962.193024	-6.135265	56.579227	1172.549561	-23.221571	362.592224	1146.512817	-9.892048	309.678833	553.712769	212.984863	320.491058	483.321350	145.774612	242.281204	357.246094	200.327011	77.209778	194.256699	142.928314	19.795801	209.202286	85.840614	172.418182	109.045609	102.932251	245.052353	572.347473	-192.484695	226.735382	441.774689	-134.329590	204.283951	297.193176	-179.443756	149.325623	79.461578	-105.638023	92.538643	54.700317	-50.446396	284.421417	44.662029	-79.459885
321	3.20000000	223.001678	1380.519653	165.804993	234.225922	1366.769043	-229.034241	174.409180	1443.511475	-43.006638	322.035492	1340.312866	-20.529224	95.806595	1089.506226	282.634521	227.159164	1020.083313	-286.965637	177.220863	851.217377	266.347534	366.471451	824.553223	-299.344711	239.370010	936.840942	143.789658	236.979187	938.848206	-160.675690	45.337360	962.096924	44.174126	45.527760	964.057068	-56.301090	45.432560	963.076996	-6.063482	64.749062	1173.325073	-23.524004	370.644257	1146.696289	-9.906470	323.755707	556.340210	211.407196	334.565094	485.670898	144.156113	260.853058	356.574158	199.140518	102.560738	186.726700	141.927567	44.625015	198.425095	84.535675	202.404373	106.752838	103.125504	248.291443	572.184631	-192.212097	227.984970	441.799103	-134.006470	205.108856	297.331421	-179.291367	149.423615	79.573730	-105.479652	92.712074	54.934006	-50.324177	284.472992	44.533653	-79.382996
322	3.21000000	230.970276	1381.028076	165.840820	242.710266	1367.018555	-228.974625	183.023804	1443.959229	-43.039810	330.419800	1340.497192	-20.457834	99.212219	1090.954468	280.447144	240.077087	1020.310303	-287.045593	173.990456	850.460968	264.750343	383.269775	827.799652	-300.040176	247.458481	937.241699	143.372955	244.410782	939.265808	-161.027008	53.273067	962.783081	44.317997	53.155933	964.916138	-56.166607	53.214500	963.849609	-5.924305	72.928261	1173.989746	-23.744272	378.702393	1146.816040	-9.954360	337.174255	558.757202	209.880356	347.992004	487.704865	142.718399	279.054382	355.610199	198.042404	128.341644	178.818695	140.900650	70.095032	187.296692	83.221191	232.510040	104.303757	103.270973	251.603775	572.049744	-191.961487	229.262329	441.841797	-133.700638	205.915207	297.504669	-179.199951	149.498444	79.708992	-105.334297	92.860481	55.180855	-50.191940	284.512390	44.414299	-79.338631
